<?xml version="1.0" encoding="utf-8"?>
<!-- Generator: Adobe Illustrator 23.0.2, SVG Export Plug-In . SVG Version: 6.00 Build 0)  -->
<svg version="1.1" id="Icon_3" xmlns="http://www.w3.org/2000/svg" xmlns:xlink="http://www.w3.org/1999/xlink" x="0px" y="0px"
	 viewBox="0 0 60 60" style="enable-background:new 0 0 60 60;" xml:space="preserve">
<style type="text/css">
	.st0{fill:#007BFF;}
</style>
<path class="st0" d="M53.7,9.5c0-0.3-0.3-0.6-0.6-0.6s-0.7,0-1,0c0.1-0.5,0-1-0.5-1.3c-0.2-0.1-0.4-0.1-0.6-0.2c0.2-0.7,0-1.5,0-2.2
	c0-0.9,0.1-1.9-0.2-2.7C51,2.4,51,2.1,50.9,2c-0.2-0.3-0.4-0.5-0.6-0.7c-0.2-0.2-0.5-0.5-0.8-0.6c-0.1,0-0.1,0-0.1,0h-0.1
	c-0.3,0.1-0.6,0.4-0.8,0.6S48,1.7,47.9,2c-0.1,0.2-0.1,0.4,0.1,0.6c-0.2,0.9-0.1,1.8-0.2,2.7c0,0.7-0.1,1.5,0,2.2
	c-0.2,0-0.4,0-0.6,0.2C46.7,8,46.6,8.5,46.7,9c-0.4,0-0.7,0-1,0s-0.6,0.3-0.6,0.6c-0.1,2.8-0.2,5.6-0.3,8.4c0,0.3,0.3,0.6,0.6,0.6
	s0.7,0,1.1,0.1c-0.1,0.7-0.1,1.3-0.1,2c0,0.3,0.3,0.5,0.6,0.6c0.2,0,0.4,0,0.7,0.1c-0.2,1.6,0,3.3,0.1,4.9c0,0.3,0.2,0.5,0.5,0.5
	s0.6,0,0.8,0c0.3,5.4-0.7,11.6-3.3,16.6c-0.2-3-1.2-5.9-3.2-8.3c-5.1-6.4-15.7-6.5-20.6,0.3c-2.9,4.1-3,9.5-0.2,13.6
	c2.7,4.1,7.9,5.5,12.5,4.9c3.8-0.6,7.2-2.8,9.7-5.7c-1.2,4.2-4.6,7.7-8.6,9.2c-4.9,1.9-10.5,0.6-14.8-2.2c-9-6-11.5-18.4-9.3-28.4
	c0.3,0,0.5,0,0.8,0s0.5-0.2,0.5-0.5c0.1-1.6,0.3-3.3,0.1-4.9c0.2,0,0.4,0,0.7-0.1c0.3,0,0.6-0.2,0.6-0.6c0-0.7,0-1.3-0.1-2
	c0.4,0,0.7,0,1.1-0.1c0.3,0,0.6-0.3,0.6-0.6c-0.1-2.8-0.2-5.6-0.3-8.4C15.3,9.3,15,9,14.7,9s-0.7,0-1,0c0.1-0.5,0-1-0.5-1.3
	c-0.2-0.1-0.4-0.1-0.6-0.2c0.2-0.7,0-1.5,0-2.2c0-0.9,0.1-1.9-0.2-2.7c0.1-0.2,0.2-0.4,0.1-0.6c-0.2-0.3-0.4-0.5-0.6-0.7
	c-0.2-0.2-0.5-0.5-0.8-0.6c-0.1,0-0.1,0-0.1,0h-0.1c-0.7,0-1,0.3-1.2,0.5C9.5,1.5,9.2,1.7,9.1,2C9,2.1,9,2.4,9.1,2.5
	C8.9,3.4,9,4.3,9,5.2c0,0.7-0.1,1.5,0,2.2c-0.2,0-0.4,0-0.6,0.2C7.9,7.8,7.8,8.4,7.9,8.9c-0.4,0-0.7,0-1,0S6.3,9.2,6.3,9.5
	c-0.1,2.8-0.2,5.6-0.3,8.4c0,0.3,0.3,0.6,0.6,0.6c0.3,0,0.7,0,1.1,0.1c-0.1,0.7-0.1,1.3-0.1,2c0,0.3,0.3,0.5,0.6,0.6
	c0.2,0,0.4,0,0.7,0.1c-0.2,1.6,0,3.3,0.1,4.9c0,0.3,0.2,0.5,0.5,0.5c0.2,0,0.5,0,0.7,0c-2.4,9-0.3,19.1,5.8,26.1
	c5.8,6.6,16,9.1,23.4,3.7c3.6-2.6,5.7-6.5,6.1-10.7c0.3-0.4,0.6-0.9,0.8-1.3c3.1-5.3,4-11.8,3.7-17.9c0.2,0,0.4,0,0.7,0
	s0.5-0.2,0.5-0.5c0.1-1.6,0.3-3.3,0.1-4.9c0.2,0,0.4,0,0.7-0.1c0.3,0,0.6-0.2,0.6-0.6c0-0.7,0-1.3-0.1-2c0.4,0,0.7,0,1.1-0.1
	c0.3,0,0.6-0.3,0.6-0.6C53.9,15.1,53.8,12.3,53.7,9.5z M10.5,1.9c0.1-0.1,0.1-0.1,0.2-0.2c0.1,0.1,0.1,0.1,0.2,0.2
	c0.2,0.2,0.3,0.4,0.5,0.6c-0.1,0.5-0.1,1.1-0.1,1.7c-0.4,0-0.7,0-1.1,0c0-0.4,0-0.9,0-1.3c0,0,0,0,0.1,0c0.2,0,0.4,0,0.6-0.1
	c0.1-0.1,0.1-0.3,0-0.3c-0.2-0.1-0.3-0.1-0.5-0.1h-0.1C10.2,2.2,10.4,2,10.5,1.9z M10.1,6.6c0.1,0,0.3,0,0.4,0c0.4,0,0.4-0.5,0-0.6
	c-0.1,0-0.3,0-0.4,0c0-0.3,0-0.5,0-0.8c0-0.1,0-0.3,0-0.4c0.4,0.1,0.8,0.1,1.2,0.1c0,0.1,0,0.2,0,0.3c0,0.7-0.1,1.5,0.1,2.2
	c-0.2,0-0.5,0-0.7,0.1l0,0l0,0c-0.2,0-0.5,0-0.7-0.1C10,7.1,10.1,6.8,10.1,6.6z M9,8.5c0,0,0.2,0,0.3,0c0.4,0,0.8,0,1.2,0
	c0.1,0,0.1,0,0.2,0c0,0,0.1,0,0.2,0c0.4,0.1,0.8,0,1.2,0c0.1,0,0.3,0,0.3,0c0,0.1,0,0.2,0,0.3c-0.2,0-0.5,0-0.7,0.1
	c-0.5,0-1,0.1-1.4,0.1h-0.1C9.8,8.9,9.4,8.8,9,8.8C9,8.7,9,8.6,9,8.5z M7.2,17.3c0.1-1.9,0.1-3.8,0.2-5.7c0.1,0,0.2,0.1,0.3,0.1
	c1.6,0.1,3.7,0.2,5.2-0.4c0.1-0.1,0.1-0.3,0-0.3c-1.6-0.5-3.6-0.5-5.2-0.4c-0.1,0-0.2,0-0.2,0.1c0-0.2,0-0.4,0-0.6
	c0.8,0,1.7,0.1,2.5-0.1c0.1,0,0.2,0,0.3,0c0.4,0,0.7,0,1.1,0c0.8,0.2,1.7,0.1,2.5,0.1c0.1,2.4,0.1,4.8,0.2,7.3
	c-1.1,0-2.3,0.1-3.4,0.2C9.5,17.4,8.4,17.4,7.2,17.3z M8.7,20c0-0.5,0-0.9-0.1-1.4c0.7,0,1.4,0.1,2.1,0c0.7,0,1.4,0,2.1,0
	c-0.1,0.5-0.1,0.9-0.1,1.4c-0.7,0-1.3,0.1-2,0.1C10,20.1,9.3,20.1,8.7,20z M9.8,24.7c0.3,0.1,0.6,0.1,0.8-0.1c0.1-0.1,0.1-0.2,0-0.3
	c-0.2-0.2-0.5-0.2-0.8-0.2c0-0.2,0-0.4,0-0.5c0.1,0,0.1,0,0.2,0c0.3,0,0.6,0,0.8-0.2c0.1-0.1,0.1-0.3,0-0.4
	c-0.3-0.2-0.6-0.2-0.9-0.1H9.8c0-0.2,0-0.3,0-0.5c0.2,0,0.4,0,0.6,0c0.3,0,0.5-0.1,0.7-0.2s0.2-0.4,0-0.4c-0.4-0.2-0.9-0.2-1.4-0.2
	l0,0c0-0.2,0-0.3-0.1-0.5c0.2,0,0.4,0,0.5,0s0.2,0.1,0.3,0.1s0.2,0,0.3,0s0.2,0,0.3,0s0.2,0,0.3-0.1c0.2,0,0.4,0,0.5,0
	c-0.3,1.4-0.2,3-0.3,4.4c-0.3,0-0.6,0-0.8,0.1c-0.3,0-0.6,0-0.8-0.1C9.8,25.3,9.8,25,9.8,24.7z M44.2,45.4c-2.2,3.2-5.3,5.7-9.4,6.8
	c-4.8,1.3-10.2-0.7-12.7-5c-2.6-4.4-1.2-9.9,2.4-13.2c3.9-3.5,9.5-3.5,13.8-1C42.6,35.6,44.6,40.6,44.2,45.4z M49.2,1.9
	c0.1-0.1,0.1-0.1,0.2-0.2c0.1,0.1,0.1,0.1,0.2,0.2c0.2,0.2,0.3,0.4,0.5,0.6C50,3,50,3.6,50,4.2c-0.4,0-0.7,0-1.1,0
	c0-0.4,0-0.9,0-1.3c0,0,0,0,0.1,0c0.2,0,0.4,0,0.6-0.1c0.1-0.1,0.1-0.3,0-0.3c-0.2-0.1-0.3-0.1-0.5-0.1H49C48.9,2.2,49,2,49.2,1.9z
	 M48.7,6.6c0.1,0,0.3,0,0.4,0c0.4,0,0.4-0.5,0-0.6c-0.1,0-0.3,0-0.4,0c0-0.3,0-0.5,0-0.8c0-0.1,0-0.3,0-0.4c0.4,0.1,0.8,0.1,1.2,0.1
	c0,0.1,0,0.2,0,0.3c0,0.7-0.1,1.5,0.1,2.2c-0.2,0-0.5,0-0.7,0.1l0,0l0,0c-0.2,0-0.5,0-0.7-0.1C48.7,7.1,48.7,6.8,48.7,6.6z
	 M47.6,8.5c0,0,0.2,0,0.3,0c0.4,0,0.8,0,1.2,0c0.1,0,0.1,0,0.2,0c0,0,0.1,0,0.2,0c0.4,0.1,0.8,0,1.2,0c0.1,0,0.3,0,0.3,0
	c0,0.1,0,0.2,0,0.3c-0.2,0-0.5,0-0.7,0.1c-0.5,0-1,0.1-1.4,0.1h-0.1c-0.4-0.1-0.8-0.2-1.2-0.2C47.7,8.7,47.6,8.6,47.6,8.5z
	 M50.2,25.6c-0.3,0-0.6,0-0.8,0.1c-0.3,0-0.6,0-0.8-0.1c0-0.3,0-0.6,0-0.9c0.3,0.1,0.6,0.1,0.8-0.1c0.1-0.1,0.1-0.2,0-0.3
	c-0.2-0.2-0.5-0.2-0.8-0.2c0-0.2,0-0.4,0-0.5c0.1,0,0.1,0,0.2,0c0.3,0,0.6,0,0.8-0.2c0.1-0.1,0.1-0.3,0-0.4
	c-0.3-0.2-0.6-0.2-0.9-0.1h-0.1c0-0.2,0-0.3,0-0.5c0.2,0,0.4,0,0.6,0c0.3,0,0.5-0.1,0.7-0.2s0.2-0.4,0-0.4c-0.4-0.2-0.9-0.2-1.4-0.2
	l0,0c0-0.2,0-0.3-0.1-0.5c0.2,0,0.4,0,0.5,0s0.2,0.1,0.3,0.1s0.2,0,0.3,0s0.2,0,0.3,0s0.2,0,0.3-0.1c0.2,0,0.4,0,0.5,0
	C50.2,22.7,50.2,24.2,50.2,25.6z M51.3,20c-0.7,0-1.3,0.1-2,0.1S48,20,47.3,20c0-0.5,0-0.9-0.1-1.4c0.7,0,1.4,0.1,2.1,0
	c0.7,0,1.4,0,2.1,0C51.4,19.1,51.3,19.6,51.3,20z M49.3,17.5c-1.1-0.1-2.3-0.2-3.4-0.2c0.1-1.9,0.1-3.8,0.2-5.7
	c0.1,0,0.2,0.1,0.3,0.1c1.6,0.1,3.7,0.2,5.2-0.4c0.1-0.1,0.1-0.3,0-0.3c-1.6-0.5-3.6-0.5-5.2-0.4c-0.1,0-0.2,0-0.2,0.1
	c0-0.2,0-0.4,0-0.6c0.8,0,1.7,0.1,2.5-0.1c0.1,0,0.2,0,0.3,0c0.4,0,0.7,0,1.1,0c0.8,0.2,1.7,0.1,2.5,0.1c0.1,2.4,0.1,4.8,0.2,7.3
	C51.6,17.4,50.5,17.4,49.3,17.5z"/>
</svg>
