<?xml version="1.0" encoding="utf-8"?>
<!-- Generator: Adobe Illustrator 23.0.2, SVG Export Plug-In . SVG Version: 6.00 Build 0)  -->
<svg version="1.1" id="Icon_1" xmlns="http://www.w3.org/2000/svg" xmlns:xlink="http://www.w3.org/1999/xlink" x="0px" y="0px"
	 viewBox="0 0 60 60" style="enable-background:new 0 0 60 60;" xml:space="preserve">
<style type="text/css">
	.st0{fill:#007BFF;}
</style>
<g>
	<path class="st0" d="M8.1,7.5c0.3,0.1,0.7,0,0.9-0.3c0.3-0.6-0.4-1.3-0.7-1.7c-0.7-1-1.5-1.9-2.4-2.7c-0.4-0.3-1-1-1.5-0.8l0,0
		C4.3,2,4.2,2,4.2,2S4.1,2,4.1,2.1C3.7,2.2,3.6,2.5,3.6,2.7c0,0.3,0.2,0.7,0.4,1c0.2,0.2,0.3,0.4,0.5,0.6c0.1,0.1,0.2,0.2,0.3,0.4
		C5.1,5,5.3,5.2,5.5,5.4c0.1,0.1,0.2,0.2,0.3,0.3C6.4,6.4,7.2,7.2,8.1,7.5z M7.1,6.2c-0.5-0.5-0.9-1-1.4-1.4
		C5.6,4.6,5.4,4.4,5.2,4.2C5,4,4.8,3.8,4.6,3.6c0-0.1-0.1-0.2-0.1-0.3C4.4,3.2,4.4,3,4.4,2.9s0.1-0.1,0.1-0.1l0,0h0.1l0,0
		c0.5-0.1,1,0.8,1.2,1C6.4,4.4,7,5,7.6,5.6c0.3,0.3,0.7,0.6,0.7,1c0,0.2-0.1,0.3-0.3,0.3C7.7,6.8,7.4,6.5,7.1,6.2z"/>
	<path class="st0" d="M7.2,9c0.3-0.2,0.4-0.6,0.3-0.9C7.1,7.3,6.3,6.5,5.6,5.9C5.5,5.8,5.4,5.7,5.3,5.6C5.1,5.3,4.9,5.1,4.7,4.9
		C4.5,4.8,4.4,4.7,4.3,4.6C4.1,4.5,3.9,4.3,3.7,4.1C3.4,3.9,3,3.7,2.6,3.7C2.4,3.7,2.2,3.8,2,4.2c0,0,0,0-0.1,0.1c0,0,0,0.1,0,0.2
		l0,0C1.8,5,2.4,5.6,2.8,5.9c0.9,0.8,1.8,1.7,2.7,2.4C5.9,8.6,6.6,9.4,7.2,9z M2.6,4.7L2.6,4.7C2.6,4.6,2.6,4.6,2.6,4.7L2.6,4.7
		c0-0.2,0.1-0.2,0.1-0.2c0.1,0,0.3,0,0.5,0.1c0.1,0,0.2,0.1,0.2,0.2C3.6,5,3.8,5.1,4,5.3c0.2,0.2,0.4,0.4,0.5,0.5
		c0.5,0.5,1,0.9,1.4,1.4c0.3,0.3,0.6,0.6,0.7,1c0,0.2-0.1,0.3-0.3,0.3C6.1,8.4,5.8,8,5.5,7.7C4.9,7.2,4.3,6.5,3.7,6
		C3.4,5.7,2.6,5.2,2.6,4.7z"/>
	<path class="st0" d="M53.9,34c-2.6-1.1-5.6-0.9-8.2-2.2c-2.8-1.4-3.2-4.7-5.2-6.8c-3.3-3.4-8.9-2.8-11.6,0.8
		c-1.9-1.9-3.8-3.8-5.6-5.7c-2.1-2.1-4.1-4.1-6.2-6.2c-1.9-1.9-3.7-4-5.8-5.7c-0.5-0.7-0.6-1.5-0.9-2.2c-0.1-0.3-0.3-0.5-0.6-0.8
		c0.4-0.4,0.4-1.1,0-1.5C9.7,3.6,9.3,3.5,9,3.6C8.8,3.7,8.6,3.9,8.5,4.1C8.4,4,8.4,4,8.3,3.9c0.4-0.4,0.3-1.3-0.2-1.6
		C7.8,2.1,7.5,2,7.1,2.1C7,2.2,6.9,2.3,6.8,2.5C6.7,2.4,6.6,2.3,6.6,2.3C7,1.9,7,1.2,6.5,0.9C6.2,0.7,5.9,0.6,5.6,0.7
		C5.5,0.8,5.3,0.9,5.3,1.1C5,0.8,4.6,0.5,4.3,0.2C4.1,0,3.9,0,3.8,0.2C3,1,2.2,0.5,1.5,1.1C1.4,1.2,1.3,1.3,1.3,1.4
		C1.2,1.4,1.1,1.5,1,1.5C0.4,2.3,0.9,3.1,0.1,3.9C0,4,0,4.2,0.1,4.4C0.4,4.7,0.7,5,1,5.3C0.9,5.4,0.7,5.5,0.7,5.7
		C0.5,6,0.6,6.3,0.8,6.5C1.1,7,1.8,7,2.2,6.6c0.1,0.1,0.1,0.1,0.2,0.2C2.3,6.9,2.1,7.1,2.1,7.2c-0.2,0.3,0,0.7,0.1,1
		c0.4,0.5,1.2,0.6,1.6,0.2C3.9,8.5,3.9,8.5,4,8.6c-0.2,0-0.4,0.3-0.5,0.5c-0.1,0.3,0,0.6,0.2,0.9c0.4,0.4,1.1,0.4,1.5,0
		c0.2,0.2,0.5,0.4,0.8,0.6c0.7,0.3,1.5,0.4,2.2,0.9c1.6,2.1,3.8,4,5.7,5.8c2,2.1,4.1,4.1,6.2,6.2c1.9,1.9,3.8,3.8,5.7,5.6
		c-3.6,2.7-4.3,8.4-0.8,11.6c2.1,2,5.5,2.4,6.8,5.2c1.3,2.6,1.1,5.5,2.2,8.2c1.9,4.7,7.2,6.8,12,5.7c0.7-0.2,1.4-0.4,2.1-0.7
		c0.8-0.2,1.5-0.7,2.2-1.1c1.5-0.9,3-2.1,4.3-3.3s2.4-2.5,3.3-4c0.3-0.5,0.5-1,0.8-1.5c0.5-1,0.9-2.1,1.2-3.2
		C60.8,41.2,58.6,35.9,53.9,34z M9.1,4.1c0.2-0.1,0.4,0,0.5,0.1c0.2,0.3,0,0.5-0.1,0.7C9.2,4.7,9,4.5,8.8,4.3C8.9,4.2,9,4.1,9.1,4.1
		z M7.3,2.7c0.2-0.1,0.4,0,0.5,0.2C8.1,3,8,3.3,7.9,3.5C7.6,3.3,7.4,3,7.2,2.8C7.2,2.7,7.2,2.7,7.3,2.7z M6.1,1.3
		c0.2,0.2,0.2,0.5,0,0.6C5.9,1.7,5.8,1.6,5.6,1.4C5.7,1.2,5.9,1.1,6.1,1.3z M4.8,9.5C4.6,9.7,4.4,9.9,4.1,9.7C4,9.6,3.9,9.4,4,9.2
		C4,9,4.2,9,4.2,8.8C4.4,9,4.6,9.3,4.8,9.5z M3.4,8C3.2,8.1,3,8.1,2.7,7.9C2.6,7.8,2.5,7.6,2.6,7.4c0-0.1,0.1-0.2,0.2-0.2
		C3,7.5,3.2,7.7,3.4,8z M1.8,6.2c-0.1,0.2-0.4,0.2-0.6,0S1.1,5.8,1.3,5.7C1.5,5.8,1.6,6,1.8,6.2z M4.7,8.3C3.4,6.9,2.1,5.5,0.8,4.1
		C1,3.8,1.2,3.6,1.3,3.2c0-0.1-0.1-1.3,0.3-1.2c0.1,0,0.2,0,0.3-0.1C2,1.9,2,1.8,2,1.7C1.9,1.3,3,1.5,3.2,1.4C3.5,1.3,3.8,1.1,4,0.9
		c1.4,1.3,2.8,2.6,4.2,3.9c1,0.9,1.6,1.6,2,2.8c0.1,0.3,0.2,0.5,0.4,0.6c0,0.1,0.1,0.1,0.1,0.2C9.9,9,9.1,9.8,8.3,10.5
		c-0.1,0.1-0.1,0.1-0.1,0.2c0,0,0,0-0.1-0.1c-0.2-0.1-0.4-0.3-0.6-0.4C6.3,9.9,5.6,9.3,4.7,8.3z M39.3,41.8
		c-0.8-0.8-1.6-1.6-2.4-2.4c0.1,0,0.1,0,0.2-0.1c0.1,0,0.1-0.1,0.2-0.1c0.7,0.7,1.4,1.4,2.1,2.1c1.4,1.4,2.7,2.9,4.2,4.1
		c-0.1,0.1-0.3,0.3-0.4,0.4C42,44.4,40.6,43.1,39.3,41.8z M44.9,44.1c-0.1,0.1-0.2,0.2-0.4,0.4c-1.2-1.4-2.6-2.7-3.9-4.1
		c-0.7-0.7-1.4-1.5-2.1-2.2c0.1-0.1,0.1-0.1,0.2-0.2c0.7,0.7,1.3,1.3,2,2C42.1,41.3,43.4,42.8,44.9,44.1z M40,41
		c-0.7-0.7-1.4-1.5-2.1-2.2c0.1-0.1,0.1-0.1,0.2-0.2c0.6,0.6,1.3,1.3,1.9,1.9c1.4,1.4,2.7,2.9,4.2,4.1c-0.1,0.1-0.2,0.2-0.4,0.4
		C42.7,43.6,41.3,42.4,40,41z M27.7,26.9c0.9,0.9,1.8,1.8,2.7,2.7c-0.1,0-0.2,0.1-0.2,0.2c-0.9-0.9-1.8-1.8-2.7-2.7
		c-0.6-0.6-1.3-1.3-1.9-1.9c0.1-0.1,0.1-0.1,0.2-0.2C26.4,25.6,27.1,26.2,27.7,26.9z M18.8,17.9c0.6,0.6,1.2,1.2,1.8,1.8l0,0
		c-0.1,0-0.2,0.1-0.3,0.1c-0.5-0.5-1-1-1.5-1.5c-1-1-1.9-1.9-2.9-2.9c0.1-0.1,0.1-0.2,0.2-0.3C17,16.1,17.9,17,18.8,17.9z
		 M18.2,18.5c0.6,0.6,1.1,1.1,1.7,1.7c-0.1,0.1-0.1,0.1-0.2,0.2c-0.4-0.4-0.8-0.8-1.2-1.2c0,0,0-0.1,0-0.2s0-0.1-0.1-0.2
		c-0.1,0-0.1,0-0.2,0c-0.4-0.4-0.8-0.8-1.2-1.2c0-0.1,0.1-0.2,0.1-0.3c0-0.1,0-0.1-0.1-0.1s-0.2,0-0.2,0.1c-0.4-0.4-0.9-0.9-1.3-1.3
		c0.1-0.1,0.2-0.2,0.2-0.3C16.4,16.8,17.3,17.7,18.2,18.5z M29,29.5c-0.1,0-0.2,0.1-0.2,0.2c-0.2-0.2-0.4-0.4-0.6-0.6
		c0.1-0.1,0.1-0.1,0.2-0.2C28.6,29.1,28.8,29.3,29,29.5z M31.3,31.8c-0.1,0.1-0.1,0.1-0.2,0.2c-0.2-0.2-0.4-0.4-0.5-0.5
		c0.1-0.1,0.1-0.2,0.2-0.2C30.9,31.4,31.1,31.6,31.3,31.8z M30.7,32.5l-0.1,0.1c-0.2-0.2-0.3-0.4-0.5-0.5l0.1-0.1
		C30.3,32.1,30.5,32.3,30.7,32.5z M29.9,31.7C29.9,31.7,29.8,31.8,29.9,31.7c-0.3-0.1-0.5-0.3-0.7-0.5l0.1-0.1
		C29.5,31.3,29.7,31.5,29.9,31.7z M29,31c-0.2-0.1-0.3-0.3-0.5-0.4l0.1-0.1c0.1,0.1,0.3,0.3,0.4,0.4C29,30.9,29,30.9,29,31z
		 M26.7,27.5c-0.2-0.2-0.4-0.4-0.6-0.6c0.1-0.1,0.1-0.2,0.2-0.2c0.2,0.2,0.4,0.4,0.7,0.7C26.8,27.4,26.7,27.5,26.7,27.5z M25.6,26.5
		c-0.2-0.2-0.4-0.5-0.7-0.7c0.1-0.1,0.2-0.1,0.2-0.2l0,0c0.2,0.2,0.5,0.5,0.7,0.7C25.8,26.4,25.7,26.4,25.6,26.5z M28.3,30.1
		l-0.1,0.1c-0.2-0.2-0.4-0.4-0.6-0.6c0,0,0.1-0.1,0.1-0.2C27.9,29.7,28.1,29.9,28.3,30.1z M28,28.5c-0.1,0-0.2,0.1-0.3,0.1
		c-0.2-0.2-0.5-0.5-0.7-0.7c0.1-0.1,0.1-0.1,0.2-0.2C27.5,28,27.7,28.2,28,28.5z M24.7,25.3c-0.1,0.1-0.1,0.1-0.2,0.2
		c-0.2-0.3-0.5-0.5-0.7-0.8c0.1-0.1,0.1-0.2,0.1-0.3C24.2,24.7,24.5,24.9,24.7,25.3C24.7,25.2,24.7,25.2,24.7,25.3z M23.7,24.2
		c-0.1,0-0.2,0.1-0.3,0.1c-0.3-0.3-0.5-0.5-0.8-0.8v-0.1c0-0.1-0.1-0.2-0.2-0.2h-0.1c-0.3-0.3-0.6-0.6-1-1c0.1-0.1,0.1-0.1,0.2-0.2
		C22.4,22.8,23,23.5,23.7,24.2z M21,21.8c-0.3-0.3-0.7-0.7-1-1c0.1-0.1,0.1-0.1,0.2-0.2c0.3,0.3,0.7,0.7,1,1
		C21.1,21.7,21.1,21.8,21,21.8z M16.2,17.8C16.1,17.9,16,18,16,18.1c-0.4-0.4-0.9-0.8-1.3-1.3c0.1-0.1,0.2-0.2,0.3-0.3
		C15.4,17,15.8,17.4,16.2,17.8z M16.6,18.2c0.3,0.3,0.6,0.6,0.9,0.9l0.1,0.1c-0.1,0.1-0.2,0.2-0.2,0.2c-0.4-0.4-0.7-0.7-1.1-1.1
		C16.4,18.4,16.5,18.3,16.6,18.2z M18,19.7c0.4,0.4,0.8,0.8,1.2,1.2C19.1,21,19.1,21,19,21.1c-0.4-0.4-0.8-0.8-1.2-1.2
		C17.9,19.8,17.9,19.8,18,19.7z M19.6,21.3c0.3,0.3,0.7,0.7,1,1c-0.1,0.1-0.1,0.1-0.2,0.2c0,0,0,0-0.1-0.1c-0.3-0.3-0.6-0.6-0.9-0.9
		C19.4,21.4,19.5,21.3,19.6,21.3z M21,22.8c0.3,0.3,0.6,0.6,0.9,0.9c-0.1,0.1-0.1,0.1-0.2,0.2c-0.3-0.3-0.6-0.6-0.9-0.9
		C20.9,22.9,21,22.8,21,22.8z M22.3,24c0.2,0.2,0.5,0.5,0.7,0.7c-0.1,0.1-0.1,0.1-0.2,0.2c-0.2-0.2-0.5-0.5-0.7-0.7
		C22.2,24.2,22.2,24.1,22.3,24z M23.4,25.1c0.2,0.2,0.5,0.5,0.7,0.7c0,0.1-0.1,0.2-0.1,0.3c-0.3-0.3-0.5-0.5-0.8-0.8
		C23.3,25.3,23.3,25.2,23.4,25.1z M24.5,26.2c0.2,0.2,0.5,0.5,0.7,0.7C25.1,27,25.1,27,25,27.1c-0.3-0.3-0.5-0.5-0.8-0.8
		C24.3,26.3,24.4,26.3,24.5,26.2z M25.6,27.3c0.2,0.2,0.4,0.4,0.7,0.7c0,0.1-0.1,0.1-0.1,0.2c-0.2-0.2-0.5-0.5-0.7-0.7
		C25.4,27.4,25.5,27.4,25.6,27.3z M26.6,28.4c0.2,0.2,0.5,0.5,0.7,0.7c0,0.1-0.1,0.1-0.1,0.2c-0.2-0.2-0.5-0.5-0.7-0.7l0,0
		C26.5,28.5,26.5,28.4,26.6,28.4z M30.8,32.8l0.1-0.1c0.2,0.2,0.4,0.4,0.6,0.6c0,0.1-0.1,0.1-0.1,0.2C31.2,33.3,31,33.1,30.8,32.8z
		 M31.4,32.3c0.1-0.1,0.1-0.1,0.2-0.2c0.2,0.2,0.4,0.4,0.6,0.6c-0.1,0.1-0.1,0.1-0.2,0.2C31.7,32.7,31.5,32.5,31.4,32.3z M30.6,31.1
		c-0.1,0.1-0.2,0.1-0.2,0.2c-0.2-0.2-0.4-0.4-0.6-0.6c0.1-0.1,0.1-0.1,0.2-0.2C30.2,30.7,30.4,30.9,30.6,31.1z M29.5,30.4
		c-0.1-0.1-0.3-0.3-0.4-0.4c0.1-0.1,0.1-0.2,0.2-0.2c0.1,0.1,0.3,0.3,0.4,0.4C29.6,30.2,29.5,30.3,29.5,30.4z M25.2,24.8
		c-1.1-1.1-2.2-2.2-3.2-3.3l0,0c0-0.1-0.1-0.2-0.2-0.2l0,0c-0.4-0.4-0.8-0.8-1.2-1.2c0.1-0.1,0.1-0.2,0.2-0.3l0,0
		c1.6,1.6,3.1,3.1,4.7,4.7C25.4,24.7,25.3,24.7,25.2,24.8z M14.5,13.5c0.5,0.5,1,1,1.5,1.5c-0.1,0.1-0.2,0.1-0.3,0.2
		c-0.4-0.4-0.8-0.8-1.2-1.2c-0.7-0.7-1.4-1.4-2.1-2c0.1-0.1,0.1-0.2,0.2-0.3C13.2,12.3,13.9,12.9,14.5,13.5z M13.8,14.1
		c0.5,0.5,0.9,0.9,1.4,1.4l-0.1,0.1L15,15.7c-0.4-0.4-0.8-0.8-1.2-1.2c-0.1-0.1-0.2-0.2-0.3-0.3c0,0,0-0.1,0.1-0.1
		c0-0.1,0-0.2-0.1-0.2c0,0-0.1,0-0.1,0.1c-0.5-0.5-1-1-1.5-1.5l0,0c0.1-0.1,0.1-0.1,0.2-0.2C12.6,13,13.2,13.5,13.8,14.1z
		 M12.8,14.4c-0.1,0.1-0.2,0.2-0.3,0.3c-0.5-0.5-0.9-1-1.4-1.4c0.1-0.1,0.1-0.1,0.2-0.2C11.8,13.5,12.3,13.9,12.8,14.4z M13.1,14.7
		C13.1,14.7,13.2,14.8,13.1,14.7c0.5,0.5,1,1,1.4,1.4c-0.1,0.1-0.2,0.2-0.3,0.3c-0.1-0.1-0.1-0.1-0.2-0.2c-0.4-0.4-0.8-0.8-1.3-1.3
		C12.9,14.9,13,14.8,13.1,14.7z M31.6,33.8c0.1-0.1,0.1-0.1,0.2-0.2c0.1,0.1,0.2,0.2,0.3,0.3c0,0.1-0.1,0.2-0.1,0.3
		C31.8,34,31.7,33.9,31.6,33.8z M32.2,33.1c0.1-0.1,0.1-0.1,0.2-0.2c0.1,0.1,0.1,0.1,0.2,0.2c-0.1,0.1-0.1,0.1-0.2,0.2
		C32.3,33.2,32.3,33.2,32.2,33.1z M33.3,33.8c0.8,0.8,1.6,1.6,2.4,2.5c0.5,0.5,1.1,1.1,1.6,1.6c-0.1,0.1-0.1,0.1-0.2,0.2
		c-0.5-0.5-0.9-0.9-1.4-1.4c-0.9-0.9-1.8-1.8-2.7-2.7C33.2,34,33.2,33.9,33.3,33.8z M37.8,37.4c-0.5-0.5-0.9-0.9-1.4-1.4
		c-0.9-0.9-1.7-1.8-2.6-2.6c0.1-0.1,0.2-0.1,0.2-0.2c0.8,0.8,1.6,1.6,2.4,2.4c0.5,0.5,1,1,1.5,1.5C37.9,37.3,37.8,37.3,37.8,37.4z
		 M33,32.6c-0.1-0.1-0.2-0.2-0.3-0.3v-0.1c0-0.1,0-0.2-0.1-0.1c0,0-0.1,0-0.1,0.1c-0.7-0.7-1.5-1.5-2.2-2.2c0.1-0.1,0.1-0.2,0.2-0.2
		c0.9,0.9,1.8,1.8,2.7,2.7C33.1,32.5,33.1,32.6,33,32.6z M28.1,26.4c-0.7-0.7-1.3-1.3-2-2c0-0.1,0.1-0.1,0.1-0.2
		c0.8,0.8,1.5,1.5,2.3,2.3c1.8,1.8,3.6,3.9,5.6,5.5c-0.1,0-0.2,0.1-0.3,0.1C31.9,30.2,30,28.3,28.1,26.4z M16.2,14.1
		c2,2.1,4.1,4.1,6.2,6.2c1.3,1.3,2.5,2.5,3.8,3.8c-0.1,0-0.1,0.1-0.2,0.1c-2.2-2.2-4.3-4.4-6.5-6.5c-1.5-1.5-2.9-2.9-4.4-4.4
		c-0.8-0.8-1.5-1.5-2.3-2.3c-0.6-0.6-1.1-1.2-1.8-1.7c0.1-0.1,0.2-0.2,0.2-0.3C12.7,10.9,14.6,12.5,16.2,14.1z M12.3,11.4
		c-0.1,0-0.2,0.1-0.3,0.2c-0.5-0.5-1-1.1-1.7-1.6c0.1-0.1,0.3-0.2,0.4-0.4C11.2,10.2,11.7,10.8,12.3,11.4z M11.5,11.9
		c-0.1,0.1-0.1,0.1-0.2,0.2l0,0c-0.5-0.5-1-1.1-1.7-1.6c0.1-0.1,0.3-0.2,0.4-0.4C10.5,10.8,11,11.4,11.5,11.9z M10.9,12.6
		c-0.1,0.1-0.1,0.1-0.2,0.2c-0.6-0.6-1.2-1.1-1.8-1.6c0,0,0.1,0,0.1-0.1c0.1-0.1,0.3-0.2,0.4-0.3C9.8,11.4,10.3,12,10.9,12.6z
		 M32.7,34.6c0.8,0.8,1.6,1.6,2.4,2.4c0.5,0.5,1,1,1.5,1.5c-1.7,0.9-3.6-0.4-4-2.1C32.4,35.6,32.5,35.1,32.7,34.6z M45,45.1
		c1.9-1.6,3.6-3.3,5.3-5.2c0.6,0.6,1,1.4,0.3,2.1c-0.4,0.4-0.8,0.7-1.2,1.1c-0.6,0.6-1.3,1.2-1.9,1.8c-0.2,0.2-0.5,0.4-0.7,0.6
		c-0.1,0.1-0.2,0.2-0.3,0.3l0,0c-0.1,0.1-0.2,0.2-0.4,0.4c-0.1,0.1-0.2,0.2-0.4,0.4l0,0c-0.1,0.1-0.2,0.2-0.3,0.3
		c-0.2,0.2-0.4,0.5-0.6,0.7c-0.6,0.6-1.2,1.3-1.8,1.9c-0.4,0.4-0.7,0.8-1.1,1.2c-0.7,0.8-1.5,0.3-2.1-0.3C41.7,48.8,43.5,47,45,45.1
		z M41.4,39.3c1.4,1.4,2.7,2.9,4.2,4.1c-0.1,0.1-0.3,0.3-0.4,0.4c-1.2-1.4-2.6-2.7-3.9-4.1c-0.8-0.8-1.5-1.6-2.3-2.4
		c0-0.1,0.1-0.2,0.1-0.4C39.9,37.8,40.6,38.5,41.4,39.3z M38.2,36.6c-0.4-0.4-0.8-0.8-1.2-1.2c-0.8-0.8-1.6-1.6-2.4-2.4
		c1-0.3,1.9-0.1,2.9,0.7C38.4,34.5,38.5,35.6,38.2,36.6z M58.9,45c0,0.6-0.1,1.2-0.3,1.8c-0.5,1-0.8,2.1-1.4,3.1
		c-0.8,1.4-1.9,2.7-3.1,3.8C52.8,54.9,51.4,56,50,57c-1,0.7-2,1.1-3,1.5c-0.4,0.1-0.9,0.3-1.3,0.3c-5.1,1-10.2-1.6-11.3-6.9
		c-0.5-2.2-0.6-4.6-1.7-6.6c-1.1-1.9-2.7-2.8-4.6-3.8c-2.4-1.2-4.4-3.2-4.5-6c-0.1-2.4,0.9-4.5,2.8-6l0,0c1.8,1.8,3.5,3.8,5.5,5.3
		c-0.1,0.6-0.2,1.2-0.1,1.8c0.4,2.2,2.6,3.3,4.6,2.9c0.8,0.8,1.6,1.6,2.4,2.5c1.4,1.4,2.7,2.9,4.2,4.1c-0.3,0.3-0.6,0.6-0.9,0.9l0,0
		c-1,1-2,2-3.1,3c-0.1,0.1-0.2,0.4-0.1,0.6c0.5,0.7,1.1,1.5,2,1.6c1,0.1,1.6-0.5,2.3-1.2c1.1-1.2,2.3-2.5,3.4-3.8
		c0.1-0.1,0.2-0.2,0.3-0.3c0.8-0.7,1.6-1.4,2.4-2.2c0.6-0.6,1.2-1.1,1.8-1.7c0.7-0.7,1.4-1.2,1.2-2.3c-0.1-0.9-0.9-1.5-1.6-2
		c-0.2-0.1-0.5-0.1-0.6,0.1C49,40,48,41,47,42l0,0c-0.4,0.3-0.7,0.7-1,1c-1.2-1.4-2.6-2.7-3.9-4.1c-0.9-1-1.8-1.9-2.8-2.8
		c0.1-1-0.2-1.9-0.7-2.7c-0.8-1.1-2.2-1.6-3.5-1.5l0,0H35c-1.5-2.1-3.6-3.9-5.4-5.7l0,0c1.5-1.8,3.6-2.8,6-2.8
		c2.8,0.1,4.8,2.1,6,4.5c1,1.9,1.8,3.5,3.8,4.6s4.4,1.3,6.6,1.7C56.9,35.5,59.5,40.1,58.9,45z"/>
	<path class="st0" d="M35.4,40.3L35.4,40.3c-0.9-0.3-1.7-0.4-2.5-0.8c-1.2-0.7-1.8-1.9-2.2-3.1c0-0.1-0.2-0.1-0.2,0
		C30.1,38.7,33,41.6,35.4,40.3z"/>
	<path class="st0" d="M36.1,31.2c-0.1,0-0.1,0.1,0,0.1c0.6,0.4,1.3,0.5,2,0.8c0.8,0.4,1.3,1.2,1.9,1.8c0.1,0.1,0.2,0,0.2-0.1
		C39.9,32.3,37.7,30.4,36.1,31.2z"/>
</g>
</svg>
