<?xml version="1.0" encoding="utf-8"?>
<!-- Generator: Adobe Illustrator 23.0.2, SVG Export Plug-In . SVG Version: 6.00 Build 0)  -->
<svg version="1.1" id="Icon_4" xmlns="http://www.w3.org/2000/svg" xmlns:xlink="http://www.w3.org/1999/xlink" x="0px" y="0px"
	 viewBox="0 0 60 60" style="enable-background:new 0 0 60 60;" xml:space="preserve">
<style type="text/css">
	.st0{fill:#007BFF;}
</style>
<g>
	<path class="st0" d="M55.9,16.5c-0.3-0.6-0.7-1.2-1-1.8c-0.8-1.3-1.7-2.6-2.7-3.8c-3.5-4.2-8.3-7.1-13.4-8.7
		c-0.7-0.2-1.3-0.4-2-0.6c-1.5-0.4-3-0.6-4.6-0.8c-5.4-0.5-10.9,0.9-15.6,3.3c-0.6,0.3-1.2,0.7-1.8,1c-1.5,0.9-2.8,1.8-4,2.8
		c-4.2,3.5-7.1,8.3-8.7,13.4c-0.2,0.7-0.4,1.3-0.6,2c-0.4,1.5-0.7,3-0.8,4.6C0.2,33.3,1.6,38.8,4,43.5c0.3,0.6,0.7,1.2,1,1.8
		c1,1.4,1.8,2.7,2.8,3.9c3.5,4.2,8.3,7.1,13.4,8.7c0.7,0.2,1.3,0.4,2,0.6c1.5,0.4,3,0.6,4.6,0.8c5.4,0.5,10.9-0.9,15.6-3.3
		c0.6-0.3,1.2-0.7,1.8-1c1.3-0.8,2.6-1.7,3.8-2.7c4.2-3.5,7.1-8.3,8.7-13.4c0.2-0.7,0.4-1.3,0.6-2c0.4-1.5,0.6-3,0.8-4.6
		C59.7,26.7,58.3,21.3,55.9,16.5z M50,49.5c-1.9,1.9-4,3.6-6.5,5c-1.1,0.6-2.2,1.1-3.3,1.5c-3.1,1.2-6.5,1.8-9.8,1.8
		c-2.7,0-5.4-0.3-8.2-1c-1.2-0.3-2.3-0.7-3.4-1.2c-3-1.4-5.8-3.3-8.2-5.6c-1.9-1.9-3.6-4-5-6.5c-0.6-1.1-1.1-2.2-1.5-3.3
		c-1.2-3.1-1.8-6.5-1.8-9.8c0-2.7,0.3-5.4,1-8.2C3.6,21,4,19.9,4.5,18.8c1.4-3,3.3-5.8,5.6-8.2c1.9-1.9,4-3.6,6.5-5
		c1.1-0.6,2.2-1.1,3.3-1.5c3.1-1.2,6.5-1.8,9.8-1.8c2.7,0,5.4,0.3,8.2,1c1.2,0.3,2.3,0.7,3.4,1.2c3,1.4,5.8,3.3,8.2,5.7
		c1.9,1.9,3.6,4,5,6.5c0.6,1.1,1.1,2.2,1.5,3.3c1.2,3.1,1.8,6.5,1.8,9.8c0,2.7-0.3,5.4-1,8.2c-0.3,1.2-0.7,2.3-1.2,3.4
		C54.2,44.3,52.3,47.1,50,49.5z"/>
	<path class="st0" d="M40.4,24.6c-0.1-0.2-0.3-0.5-0.4-0.7c-0.3-0.5-0.7-1-1.1-1.5c-1.4-1.7-3.3-2.8-5.4-3.5
		c-0.3-0.1-0.5-0.2-0.8-0.2c-0.6-0.2-1.2-0.3-1.8-0.3c-2.2-0.2-4.4,0.4-6.3,1.3c-0.2,0.1-0.5,0.3-0.7,0.4c-0.5,0.3-1,0.7-1.5,1.1
		c-1.7,1.4-2.8,3.3-3.5,5.4c-0.1,0.3-0.2,0.5-0.2,0.8c-0.2,0.6-0.3,1.2-0.3,1.8c-0.2,2.2,0.4,4.4,1.3,6.3c0.1,0.2,0.3,0.5,0.4,0.7
		c0.3,0.5,0.7,1,1.1,1.5c1.4,1.7,3.3,2.8,5.4,3.5c0.3,0.1,0.5,0.2,0.8,0.2c0.6,0.2,1.2,0.3,1.8,0.3c2.2,0.2,4.4-0.4,6.3-1.3
		c0.2-0.1,0.5-0.3,0.7-0.4c0.5-0.3,1-0.7,1.5-1.1c1.7-1.4,2.8-3.3,3.5-5.4c0.1-0.3,0.2-0.5,0.2-0.8c0.2-0.6,0.3-1.2,0.3-1.8
		C42,28.7,41.4,26.5,40.4,24.6z M38,37.9c-0.8,0.8-1.6,1.5-2.6,2c-0.4,0.2-0.9,0.4-1.3,0.6c-1.3,0.5-2.6,0.7-4,0.7
		c-1.1,0-2.2-0.1-3.3-0.4c-0.5-0.1-0.9-0.3-1.4-0.5c-1.2-0.6-2.3-1.3-3.3-2.3c-0.8-0.8-1.5-1.6-2-2.6c-0.2-0.4-0.4-0.9-0.6-1.3
		c-0.5-1.3-0.7-2.6-0.7-4c0-1.1,0.1-2.2,0.4-3.3c0.1-0.5,0.3-0.9,0.5-1.4c0.6-1.2,1.3-2.3,2.3-3.3c0.8-0.8,1.6-1.5,2.6-2
		c0.4-0.2,0.9-0.4,1.3-0.6c1.3-0.5,2.6-0.7,4-0.7c1.1,0,2.2,0.1,3.3,0.4c0.5,0.1,0.9,0.3,1.4,0.5c1.2,0.6,2.3,1.3,3.3,2.3
		c0.8,0.8,1.5,1.6,2,2.6c0.2,0.4,0.4,0.9,0.6,1.3c0.5,1.3,0.7,2.6,0.7,4c0,1.1-0.1,2.2-0.4,3.3c-0.1,0.5-0.3,0.9-0.5,1.4
		C39.8,35.8,39,36.9,38,37.9z"/>
	<path class="st0" d="M40.5,28.7c-0.1-0.9-0.3-1.8-0.7-2.6c-0.5-1.4-1.3-2.7-2.3-3.7c-1.9-2-4.7-3.1-7.5-2.9c-0.1,0-0.2,0-0.2,0
		c-2.7-0.1-5.4,1.1-7.2,3l0,0c-1.3,1.2-2.1,2.7-2.6,4.3c-0.4,1.1-0.6,2.2-0.7,3.3c-0.1,3.2,1.5,6.2,4.1,8c1.2,1,2.6,1.7,4,2
		c0.9,0.2,1.7,0.4,2.6,0.4c2.3,0.1,4.5-0.7,6.3-2.2c0.5-0.3,1-0.7,1.4-1.1C40,35.2,41,31.8,40.5,28.7z M29.4,39.3
		c-2.1-0.3-4.2-1.1-5.9-2.6c-2.2-2-2.8-4.7-2.8-7.5c0.3-2.1,1.1-4.2,2.6-5.9c0.2-0.2,0.4-0.4,0.6-0.6c1.7-1.3,3.6-2.1,5.8-2.2
		c3-0.1,5.3,1.3,7.2,3.3c1.3,1.7,2.2,3.7,2.3,6c0.1,3-1.3,5.3-3.3,7.2c-1,0.8-2.2,1.4-3.4,1.8C31.6,39.2,30.5,39.3,29.4,39.3z"/>
	<path class="st0" d="M31.1,29.4c-0.2-0.4-0.6-0.6-1.1-0.7s-0.9,0.2-1.1,0.6c0,0.1-0.1,0.2-0.1,0.2c-0.1,0.2-0.1,0.5,0,0.7
		c0.1,0.5,0.5,0.8,1,0.9s1-0.1,1.3-0.5C31.3,30.4,31.3,29.8,31.1,29.4z"/>
	<path class="st0" d="M29.8,55.1c-9.1-0.7-16.1-5.7-20.6-13.6C4.9,34,4.5,24.7,9.3,17.4c0.1-0.1-0.1-0.2-0.1-0.1
		c-11.7,14,2.3,40.3,20.6,38.1C30,55.4,30,55.1,29.8,55.1z"/>
	<path class="st0" d="M26.3,48.7c-5-2-9.2-4.6-12.1-9.3c-1.6-2.6-2.4-5.7-2.5-8.8c-0.2-3.1,0.7-5.8,1.4-8.7c0-0.1-0.1-0.1-0.1,0
		c-3.4,4.9-2.5,12.4,0.1,17.5c2.5,4.9,7.7,9.1,13.2,9.6C26.5,49,26.5,48.7,26.3,48.7z"/>
	<path class="st0" d="M26.3,42.9c-1-0.7-2.1-1.2-3.2-1.8c-1.5-0.9-2.8-2.2-3.8-3.7c-2.1-3-2.3-6.3-2.2-9.8c0,0,0,0-0.1,0
		c-1.3,3.3-0.4,7.3,1.5,10.3C20.1,40.3,23.3,43.1,26.3,42.9C26.3,42.9,26.4,42.9,26.3,42.9z"/>
	<path class="st0" d="M30.2,4.9c9.1,0.7,16.1,5.7,20.6,13.6c4.3,7.5,4.7,16.8-0.1,24.1c-0.1,0.1,0.1,0.2,0.1,0.1
		c11.7-14-2.3-40.3-20.6-38.1C30,4.7,30,4.9,30.2,4.9z"/>
	<path class="st0" d="M33.7,11.4c5,2,9.2,4.6,12.1,9.3c1.6,2.6,2.4,5.7,2.5,8.8c0.2,3.1-0.7,5.8-1.4,8.7c0,0.1,0.1,0.1,0.1,0
		c3.4-4.9,2.5-12.4-0.1-17.5c-2.5-4.9-7.7-9.1-13.2-9.6C33.5,11,33.5,11.3,33.7,11.4z"/>
	<path class="st0" d="M33.7,17.2c1,0.7,2.1,1.2,3.2,1.8c1.5,0.9,2.8,2.2,3.8,3.7c2.1,3,2.3,6.3,2.2,9.8c0,0,0,0,0.1,0
		c1.3-3.3,0.4-7.3-1.5-10.3C39.9,19.8,36.7,17,33.7,17.2C33.7,17.1,33.6,17.2,33.7,17.2z"/>
</g>
</svg>
